<mxfile host="app.diagrams.net" modified="2023-12-28T14:13:56.584Z" agent="Mozilla/5.0 (Windows NT 10.0; Win64; x64) AppleWebKit/537.36 (KHTML, like Gecko) Chrome/120.0.0.0 Safari/537.36 Edg/120.0.0.0" etag="4BGrmQ0HPS-Zndvtm2qr" version="22.1.13" type="github">
  <diagram name="第 1 页" id="fyYPKB46S58HewFQ87Mw">
    <mxGraphModel dx="1546" dy="392" grid="0" gridSize="10" guides="1" tooltips="1" connect="1" arrows="1" fold="1" page="1" pageScale="1" pageWidth="827" pageHeight="1169" background="#ffffff" math="0" shadow="0">
      <root>
        <mxCell id="0" />
        <mxCell id="1" parent="0" />
        <mxCell id="Sbi2dhrdTQO1cr2tokuD-1" value="&lt;u&gt;:系統管理員&lt;/u&gt;" style="shape=umlActor;verticalLabelPosition=bottom;verticalAlign=top;html=1;outlineConnect=0;fillColor=#e1d5e7;strokeColor=#9673a6;labelBackgroundColor=none;" parent="1" vertex="1">
          <mxGeometry x="65" y="79" width="30" height="60" as="geometry" />
        </mxCell>
        <mxCell id="Sbi2dhrdTQO1cr2tokuD-2" style="edgeStyle=orthogonalEdgeStyle;rounded=0;orthogonalLoop=1;jettySize=auto;html=1;exitX=0.5;exitY=1;exitDx=0;exitDy=0;entryX=0.5;entryY=0;entryDx=0;entryDy=0;strokeColor=#9673A6;endArrow=none;endFill=0;fillColor=#d5e8d4;" parent="1" edge="1">
          <mxGeometry relative="1" as="geometry">
            <mxPoint x="81" y="142.75" as="sourcePoint" />
            <mxPoint x="81" y="304.25" as="targetPoint" />
          </mxGeometry>
        </mxCell>
        <mxCell id="Sbi2dhrdTQO1cr2tokuD-3" style="edgeStyle=orthogonalEdgeStyle;rounded=0;orthogonalLoop=1;jettySize=auto;html=1;exitX=0;exitY=0.5;exitDx=0;exitDy=0;strokeColor=#9673A6;endArrow=none;endFill=0;fillColor=#d5e8d4;" parent="1" source="Sbi2dhrdTQO1cr2tokuD-5" edge="1">
          <mxGeometry relative="1" as="geometry">
            <mxPoint x="95.4000244140625" y="124.5" as="targetPoint" />
          </mxGeometry>
        </mxCell>
        <mxCell id="Sbi2dhrdTQO1cr2tokuD-4" style="rounded=0;orthogonalLoop=1;jettySize=auto;html=1;exitX=0;exitY=1;exitDx=0;exitDy=0;strokeColor=#9673A6;endArrow=none;endFill=0;entryX=1;entryY=0;entryDx=0;entryDy=0;fillColor=#d5e8d4;" parent="1" source="Sbi2dhrdTQO1cr2tokuD-5" target="Sbi2dhrdTQO1cr2tokuD-7" edge="1">
          <mxGeometry relative="1" as="geometry">
            <mxPoint x="109" y="302.5" as="targetPoint" />
          </mxGeometry>
        </mxCell>
        <mxCell id="Sbi2dhrdTQO1cr2tokuD-5" value="&lt;u&gt;管理介面&lt;/u&gt;" style="rounded=0;whiteSpace=wrap;html=1;strokeColor=#9673A6;fillColor=#E1D5E7;" parent="1" vertex="1">
          <mxGeometry x="465" y="110.5" width="56" height="28.5" as="geometry" />
        </mxCell>
        <mxCell id="Sbi2dhrdTQO1cr2tokuD-6" style="edgeStyle=orthogonalEdgeStyle;rounded=0;orthogonalLoop=1;jettySize=auto;html=1;exitX=1;exitY=0.5;exitDx=0;exitDy=0;entryX=0;entryY=0.5;entryDx=0;entryDy=0;strokeColor=#9673A6;endArrow=none;endFill=0;fillColor=#d5e8d4;" parent="1" source="Sbi2dhrdTQO1cr2tokuD-7" target="Sbi2dhrdTQO1cr2tokuD-8" edge="1">
          <mxGeometry relative="1" as="geometry" />
        </mxCell>
        <mxCell id="Sbi2dhrdTQO1cr2tokuD-7" value="&lt;u&gt;商家管理&lt;br&gt;介面&lt;/u&gt;" style="rounded=0;whiteSpace=wrap;html=1;strokeColor=#9673A6;fillColor=#E1D5E7;" parent="1" vertex="1">
          <mxGeometry x="46" y="300.5" width="87" height="35.5" as="geometry" />
        </mxCell>
        <mxCell id="Sbi2dhrdTQO1cr2tokuD-8" value="&lt;u&gt;商家數據庫&lt;/u&gt;" style="rounded=0;whiteSpace=wrap;html=1;strokeColor=#9673A6;fillColor=#E1D5E7;" parent="1" vertex="1">
          <mxGeometry x="460" y="301.5" width="78.5" height="33.5" as="geometry" />
        </mxCell>
        <mxCell id="Sbi2dhrdTQO1cr2tokuD-9" value="" style="endArrow=open;endFill=0;html=1;align=left;verticalAlign=top;rounded=0;strokeColor=#9673A6;fillColor=#d5e8d4;" parent="1" edge="1">
          <mxGeometry x="-1" relative="1" as="geometry">
            <mxPoint x="152" y="84" as="sourcePoint" />
            <mxPoint x="198" y="68" as="targetPoint" />
          </mxGeometry>
        </mxCell>
        <mxCell id="Sbi2dhrdTQO1cr2tokuD-10" value="" style="edgeLabel;resizable=0;html=1;align=left;verticalAlign=bottom;strokeColor=#FFFFFF;fontColor=#FFFFFF;fillColor=#182E3E;" parent="Sbi2dhrdTQO1cr2tokuD-9" connectable="0" vertex="1">
          <mxGeometry x="-1" relative="1" as="geometry" />
        </mxCell>
        <mxCell id="Sbi2dhrdTQO1cr2tokuD-11" value="&lt;font color=&quot;#000000&quot;&gt;7:退出&lt;/font&gt;" style="text;html=1;align=center;verticalAlign=middle;resizable=0;points=[];autosize=1;strokeColor=none;fillColor=none;fontColor=#FFFFFF;shadow=1;" parent="1" vertex="1">
          <mxGeometry x="40" y="223" width="52" height="26" as="geometry" />
        </mxCell>
        <mxCell id="Sbi2dhrdTQO1cr2tokuD-12" value="" style="endArrow=open;endFill=0;html=1;edgeStyle=orthogonalEdgeStyle;align=left;verticalAlign=top;rounded=0;strokeColor=#9673A6;startArrow=none;startFill=0;fillColor=#d5e8d4;dashed=1;" parent="1" edge="1">
          <mxGeometry x="-1" relative="1" as="geometry">
            <mxPoint x="259" y="306.5" as="sourcePoint" />
            <mxPoint x="315" y="306.5" as="targetPoint" />
          </mxGeometry>
        </mxCell>
        <mxCell id="Sbi2dhrdTQO1cr2tokuD-13" value="" style="edgeLabel;resizable=0;html=1;align=left;verticalAlign=bottom;strokeColor=#FFFFFF;fontColor=#FFFFFF;fillColor=#182E3E;" parent="Sbi2dhrdTQO1cr2tokuD-12" connectable="0" vertex="1">
          <mxGeometry x="-1" relative="1" as="geometry" />
        </mxCell>
        <mxCell id="Sbi2dhrdTQO1cr2tokuD-14" value="&lt;font color=&quot;#000000&quot;&gt;5:提交信息&lt;/font&gt;" style="text;html=1;align=center;verticalAlign=middle;resizable=0;points=[];autosize=1;strokeColor=none;fillColor=none;fontColor=#FFFFFF;" parent="1" vertex="1">
          <mxGeometry x="248" y="282" width="76" height="26" as="geometry" />
        </mxCell>
        <mxCell id="Sbi2dhrdTQO1cr2tokuD-15" value="" style="endArrow=none;endFill=0;html=1;edgeStyle=orthogonalEdgeStyle;align=left;verticalAlign=top;rounded=0;strokeColor=#9673A6;startArrow=open;startFill=0;dashed=1;fillColor=#d5e8d4;" parent="1" edge="1">
          <mxGeometry x="-1" relative="1" as="geometry">
            <mxPoint x="72" y="205.25" as="sourcePoint" />
            <mxPoint x="72" y="242.25" as="targetPoint" />
          </mxGeometry>
        </mxCell>
        <mxCell id="Sbi2dhrdTQO1cr2tokuD-16" value="" style="edgeLabel;resizable=0;html=1;align=left;verticalAlign=bottom;strokeColor=#FFFFFF;fontColor=#FFFFFF;fillColor=#182E3E;" parent="Sbi2dhrdTQO1cr2tokuD-15" connectable="0" vertex="1">
          <mxGeometry x="-1" relative="1" as="geometry">
            <mxPoint x="-217" y="88" as="offset" />
          </mxGeometry>
        </mxCell>
        <mxCell id="Sbi2dhrdTQO1cr2tokuD-17" value="" style="endArrow=none;endFill=0;html=1;align=left;verticalAlign=top;rounded=0;strokeColor=#9673A6;startArrow=open;startFill=0;fillColor=#d5e8d4;" parent="1" edge="1">
          <mxGeometry x="-1" relative="1" as="geometry">
            <mxPoint x="281" y="235.5" as="sourcePoint" />
            <mxPoint x="325" y="216" as="targetPoint" />
          </mxGeometry>
        </mxCell>
        <mxCell id="Sbi2dhrdTQO1cr2tokuD-18" value="" style="edgeLabel;resizable=0;html=1;align=left;verticalAlign=bottom;strokeColor=#FFFFFF;fontColor=#FFFFFF;fillColor=#182E3E;" parent="Sbi2dhrdTQO1cr2tokuD-17" connectable="0" vertex="1">
          <mxGeometry x="-1" relative="1" as="geometry" />
        </mxCell>
        <mxCell id="Sbi2dhrdTQO1cr2tokuD-19" value="&lt;font color=&quot;#000000&quot;&gt;4:更新商家信息&lt;/font&gt;" style="text;html=1;align=center;verticalAlign=middle;resizable=0;points=[];autosize=1;strokeColor=none;fillColor=none;fontColor=#FFFFFF;" parent="1" vertex="1">
          <mxGeometry x="262" y="232" width="100" height="26" as="geometry" />
        </mxCell>
        <mxCell id="Sbi2dhrdTQO1cr2tokuD-20" value="" style="endArrow=none;endFill=0;html=1;edgeStyle=orthogonalEdgeStyle;align=left;verticalAlign=top;rounded=0;strokeColor=#9673A6;startArrow=open;startFill=0;dashed=1;fillColor=#d5e8d4;" parent="1" edge="1">
          <mxGeometry x="-1" relative="1" as="geometry">
            <mxPoint x="254" y="328.5" as="sourcePoint" />
            <mxPoint x="310" y="328.5" as="targetPoint" />
          </mxGeometry>
        </mxCell>
        <mxCell id="Sbi2dhrdTQO1cr2tokuD-21" value="" style="edgeLabel;resizable=0;html=1;align=left;verticalAlign=bottom;strokeColor=#FFFFFF;fontColor=#FFFFFF;fillColor=#182E3E;" parent="Sbi2dhrdTQO1cr2tokuD-20" connectable="0" vertex="1">
          <mxGeometry x="-1" relative="1" as="geometry" />
        </mxCell>
        <mxCell id="Sbi2dhrdTQO1cr2tokuD-22" value="&lt;font color=&quot;#000000&quot;&gt;6:提交結果顯示&lt;/font&gt;" style="text;html=1;align=center;verticalAlign=middle;resizable=0;points=[];autosize=1;strokeColor=none;fillColor=none;fontColor=#FFFFFF;" parent="1" vertex="1">
          <mxGeometry x="232" y="329" width="100" height="26" as="geometry" />
        </mxCell>
        <mxCell id="Sbi2dhrdTQO1cr2tokuD-23" value="&lt;u&gt;登錄&lt;/u&gt;" style="rounded=0;whiteSpace=wrap;html=1;strokeColor=#9673A6;fillColor=#E1D5E7;" parent="1" vertex="1">
          <mxGeometry x="263.5" y="40" width="48.5" height="29.5" as="geometry" />
        </mxCell>
        <mxCell id="Sbi2dhrdTQO1cr2tokuD-24" value="" style="endArrow=none;html=1;rounded=0;entryX=0;entryY=0.75;entryDx=0;entryDy=0;fillColor=#d5e8d4;strokeColor=#9673A6;" parent="1" target="Sbi2dhrdTQO1cr2tokuD-23" edge="1">
          <mxGeometry width="50" height="50" relative="1" as="geometry">
            <mxPoint x="97" y="115" as="sourcePoint" />
            <mxPoint x="147" y="65" as="targetPoint" />
          </mxGeometry>
        </mxCell>
        <mxCell id="Sbi2dhrdTQO1cr2tokuD-25" value="" style="endArrow=none;html=1;rounded=0;entryX=0;entryY=0.25;entryDx=0;entryDy=0;exitX=1;exitY=0.75;exitDx=0;exitDy=0;fillColor=#d5e8d4;strokeColor=#9673A6;" parent="1" source="Sbi2dhrdTQO1cr2tokuD-23" target="Sbi2dhrdTQO1cr2tokuD-5" edge="1">
          <mxGeometry width="50" height="50" relative="1" as="geometry">
            <mxPoint x="332" y="76" as="sourcePoint" />
            <mxPoint x="382" y="26" as="targetPoint" />
          </mxGeometry>
        </mxCell>
        <mxCell id="Sbi2dhrdTQO1cr2tokuD-26" value="&lt;font color=&quot;#000000&quot;&gt;1:註冊&lt;/font&gt;" style="text;html=1;align=center;verticalAlign=middle;resizable=0;points=[];autosize=1;strokeColor=none;fillColor=none;fontColor=#FFFFFF;" parent="1" vertex="1">
          <mxGeometry x="145" y="47" width="52" height="26" as="geometry" />
        </mxCell>
        <mxCell id="Sbi2dhrdTQO1cr2tokuD-27" value="" style="endArrow=open;endFill=0;html=1;align=left;verticalAlign=top;rounded=0;strokeColor=#9673A6;fillColor=#d5e8d4;" parent="1" edge="1">
          <mxGeometry x="-1" relative="1" as="geometry">
            <mxPoint x="382" y="73" as="sourcePoint" />
            <mxPoint x="426" y="91" as="targetPoint" />
          </mxGeometry>
        </mxCell>
        <mxCell id="Sbi2dhrdTQO1cr2tokuD-28" value="" style="edgeLabel;resizable=0;html=1;align=left;verticalAlign=bottom;strokeColor=#FFFFFF;fontColor=#FFFFFF;fillColor=#182E3E;" parent="Sbi2dhrdTQO1cr2tokuD-27" connectable="0" vertex="1">
          <mxGeometry x="-1" relative="1" as="geometry" />
        </mxCell>
        <mxCell id="Sbi2dhrdTQO1cr2tokuD-29" value="&lt;font color=&quot;#000000&quot;&gt;2:身分驗證&lt;/font&gt;" style="text;html=1;align=center;verticalAlign=middle;resizable=0;points=[];autosize=1;strokeColor=none;fillColor=none;fontColor=#FFFFFF;" parent="1" vertex="1">
          <mxGeometry x="368" y="51" width="76" height="26" as="geometry" />
        </mxCell>
        <mxCell id="Sbi2dhrdTQO1cr2tokuD-30" value="" style="endArrow=none;endFill=0;html=1;edgeStyle=orthogonalEdgeStyle;align=left;verticalAlign=top;rounded=0;strokeColor=#9673A6;startArrow=open;startFill=0;dashed=1;fillColor=#d5e8d4;" parent="1" edge="1">
          <mxGeometry x="-1" relative="1" as="geometry">
            <mxPoint x="259.75" y="139" as="sourcePoint" />
            <mxPoint x="315.75" y="139" as="targetPoint" />
          </mxGeometry>
        </mxCell>
        <mxCell id="Sbi2dhrdTQO1cr2tokuD-31" value="" style="edgeLabel;resizable=0;html=1;align=left;verticalAlign=bottom;strokeColor=#FFFFFF;fontColor=#FFFFFF;fillColor=#182E3E;" parent="Sbi2dhrdTQO1cr2tokuD-30" connectable="0" vertex="1">
          <mxGeometry x="-1" relative="1" as="geometry" />
        </mxCell>
        <mxCell id="Sbi2dhrdTQO1cr2tokuD-32" value="&lt;font color=&quot;#000000&quot;&gt;3:驗證結果&lt;/font&gt;" style="text;html=1;align=center;verticalAlign=middle;resizable=0;points=[];autosize=1;strokeColor=none;fillColor=none;fontColor=#FFFFFF;" parent="1" vertex="1">
          <mxGeometry x="249.75" y="139.5" width="76" height="26" as="geometry" />
        </mxCell>
      </root>
    </mxGraphModel>
  </diagram>
</mxfile>
